<?xml version="1.0" encoding="UTF-8"?>
<svg width="127px" height="40px" viewBox="0 0 127 40" version="1.1" xmlns="http://www.w3.org/2000/svg" xmlns:xlink="http://www.w3.org/1999/xlink">
    <!-- Generator: sketchtool 56.3 (101010) - https://sketch.com -->
    <title>D38F0D29-841A-435E-8001-77DF561BC788@3.00x</title>
    <desc>Created with sketchtool.</desc>
    <g id="Page-1" stroke="none" stroke-width="1" fill="none" fill-rule="evenodd">
        <g id="Partners-Main" transform="translate(-209.000000, -32.000000)" fill="#FFFFFF" fill-rule="nonzero">
            <g id="ICONS-/-Service-/-Logo-/-Big" transform="translate(209.000000, 32.000000)">
                <path d="M21.3579403,30.9470866 C21.291664,30.3266424 21.6690911,27.2728931 21.6690911,27.2728931 C21.6690911,27.2728931 22.4276408,27.3996087 23.1596036,27.4802413 C23.8915663,27.5608738 25.0692455,27.6247622 25.0692455,27.6247622 C25.0692455,27.6247622 24.4342326,29.9160206 24.8030105,30.4390213 C25.6553981,31.6478771 30.3144,34.6333045 31.3826401,35.8314711 C31.9196444,36.3642795 32.4648521,36.8810844 33.1319122,37.3465742 C33.6033642,37.746311 35.1250062,37.7922305 35.5251374,38.1919673 C35.7927015,38.4807318 36.1200791,39.3222594 35.955821,39.4744942 C35.843741,39.5783702 33.5379323,39.6287661 33.1319122,39.5560483 C32.6917811,39.5560483 32.1647344,39.132881 32.1647344,39.132881 C32.1647344,39.132881 31.8373278,39.4744942 31.3826401,39.2327596 C30.5813289,38.8345884 30.7010824,38.0129761 30.2333012,37.3465742 C29.9658479,37.0804309 26.0503325,34.5120543 23.5272413,33.0923211 C21.3626643,31.8743224 21.4588591,31.8918368 21.3579403,30.9470866 Z M5.78854999,23.0417308 C5.31942885,22.6258486 3.5861803,24.1056684 3.09069673,23.9989724 C2.59521315,23.8922765 3.0798299,22.6698182 2.6408921,22.7442964 C2.04567731,22.8452915 1.88690729,24.2347506 1.35229109,24.3426843 C0.49011349,24.6658686 0,23.3781983 0,21.84112 C0,20.3040418 0.548126759,18.6290985 2.41503903,17.5566301 C4.2819513,16.4841616 7.04656993,16.2109467 9.19173351,16.9287545 C11.2273552,15.8418327 13.9055294,12.6871505 19.8704485,12.5396968 C25.8353676,12.392243 28.0686813,15.3654203 29.336546,14.6535575 C30.6044106,13.9416947 31.0335643,12.3366738 30.757725,11.1376383 C30.2293719,8.84096088 29.2045536,7.59215733 28.3843633,5.54702883 C27.8693845,4.26380071 27.8411765,2.5687672 28.489882,1.3257215 C28.7809341,0.773604645 29.4877512,0.129580955 30.5535848,0.0108134784 C31.6194185,-0.107953998 31.9000818,0.785548046 32.6460475,1.02928249 C33.3920131,1.27301694 34.9863346,1.42305143 35.1108867,1.99006926 C35.2354389,2.55708709 33.3223453,3.00282627 32.8886514,2.95638166 C31.8728531,2.84783695 31.2319236,3.52952291 31.2869875,4.73395174 C31.3525398,6.26558025 31.713544,6.81249829 33.128899,8.99268723 C34.5442539,11.1728762 34.5313857,14.7979425 32.7237158,17.3273474 C32.153673,18.0662864 31.546847,18.6939739 31.1446181,19.5388483 C30.8205276,20.2156872 31.1446181,18.8517546 31.1446181,21.553244 C31.1446181,24.2547335 29.7793894,25.555112 27.9953456,26.1260164 C25.5935035,26.89462 23.5194137,26.6071444 21.3982038,26.3577281 C18.4630346,26.0126049 16.1662641,26.052968 14.9674438,26.3577281 C13.9285711,26.6228277 10.6770829,28.4529542 10.2769517,29.3046127 C10.0645623,29.7643622 8.91701428,34.5495009 8.70672254,35.600506 C8.62071793,36.0331193 8.6691798,36.8943677 8.46832759,37.2779271 C8.24859631,37.7037563 5.57299516,39.3867777 4.66470264,39.7322421 C4.24621682,39.8919281 3.40118282,40.0960376 3.30081662,39.9497764 C2.70881437,39.270077 2.71087706,39.1126305 4.4311492,37.8739105 C3.83028584,36.6305599 5.56389389,36.3269963 6.0736285,35.7138231 C6.63003633,35.0468993 7.63927786,27.7855749 7.98525654,26.8399396 C8.33123523,25.8943043 9.68173348,25.5687696 10.2292262,24.7275481 C9.97021923,24.4291404 9.61155952,24.5884411 8.66288678,24.8535406 C7.84898956,25.0821108 6.14933769,25.6864126 5.78854999,25.3842617 C5.42776228,25.0821108 6.25767112,23.457613 5.78854999,23.0417308 Z M50.76,18 L44.952,18 L44.952,3.326 L50.738,3.326 C55.336,3.326 58.526,6.252 58.526,10.652 C58.526,15.096 55.336,18 50.76,18 Z M50.738,15.25 C53.642,15.25 55.336,13.16 55.336,10.652 C55.336,8.078 53.752,6.076 50.76,6.076 L48.076,6.076 L48.076,15.25 L50.738,15.25 Z M65.676,18.264 C62.442,18.264 60,16.086 60,12.676 C60,9.596 62.288,7.11 65.5,7.11 C68.69,7.11 70.824,9.486 70.824,12.94 L70.824,13.6 L62.926,13.6 C63.124,14.898 64.18,15.976 65.984,15.976 C66.886,15.976 68.118,15.602 68.8,14.942 L70.054,16.79 C68.998,17.758 67.326,18.264 65.676,18.264 Z M68.14,11.664 C68.052,10.652 67.348,9.398 65.5,9.398 C63.762,9.398 63.014,10.608 62.904,11.664 L68.14,11.664 Z M75.84,18.264 C73.882,18.264 72.848,17.252 72.848,15.338 L72.848,3.326 L75.642,3.326 L75.642,14.59 C75.642,15.272 75.994,15.778 76.61,15.778 C77.028,15.778 77.424,15.624 77.578,15.448 L78.172,17.582 C77.754,17.956 76.984,18.264 75.84,18.264 Z M80.79,6.23 C79.888,6.23 79.14,5.482 79.14,4.558 C79.14,3.634 79.888,2.908 80.79,2.908 C81.714,2.908 82.462,3.634 82.462,4.558 C82.462,5.482 81.714,6.23 80.79,6.23 Z M82.198,18 L79.404,18 L79.404,7.374 L82.198,7.374 L82.198,18 Z M90.734,18 L87.72,18 L83.452,7.374 L86.444,7.374 L89.216,14.766 L92.01,7.374 L95.002,7.374 L90.734,18 Z M101.25,18.264 C98.016,18.264 95.574,16.086 95.574,12.676 C95.574,9.596 97.862,7.11 101.074,7.11 C104.264,7.11 106.398,9.486 106.398,12.94 L106.398,13.6 L98.5,13.6 C98.698,14.898 99.754,15.976 101.558,15.976 C102.46,15.976 103.692,15.602 104.374,14.942 L105.628,16.79 C104.572,17.758 102.9,18.264 101.25,18.264 Z M103.714,11.664 C103.626,10.652 102.922,9.398 101.074,9.398 C99.336,9.398 98.588,10.608 98.478,11.664 L103.714,11.664 Z M111.216,18 L108.422,18 L108.422,7.374 L111.216,7.374 L111.216,8.804 C111.986,7.88 113.284,7.11 114.604,7.11 L114.604,9.838 C114.406,9.794 114.164,9.772 113.834,9.772 C112.91,9.772 111.678,10.3 111.216,10.982 L111.216,18 Z M120.654,22.312 C118.872,22.312 117.442,21.806 116.21,20.728 L117.464,18.726 C118.234,19.65 119.532,20.024 120.654,20.024 C122.458,20.024 123.514,18.792 123.514,17.296 L123.514,16.196 C122.788,16.988 121.512,17.802 119.774,17.802 C117.442,17.802 116.342,16.526 116.342,14.458 L116.342,7.374 L119.136,7.374 L119.136,13.358 C119.136,14.832 119.906,15.316 121.094,15.316 C122.172,15.316 123.03,14.722 123.514,14.106 L123.514,7.374 L126.308,7.374 L126.308,17.296 C126.308,20.486 124.042,22.312 120.654,22.312 Z M51.832,38.264 C47.41,38.264 44,35.184 44,30.674 C44,26.142 47.41,23.084 51.832,23.084 C55.044,23.084 56.914,24.822 57.948,26.67 L55.264,27.99 C54.648,26.802 53.328,25.856 51.832,25.856 C49.148,25.856 47.212,27.902 47.212,30.674 C47.212,33.446 49.148,35.492 51.832,35.492 C53.328,35.492 54.648,34.546 55.264,33.358 L57.948,34.656 C56.914,36.482 55.044,38.264 51.832,38.264 Z M62.992,38.264 C61.034,38.264 60,37.252 60,35.338 L60,23.326 L62.794,23.326 L62.794,34.59 C62.794,35.272 63.146,35.778 63.762,35.778 C64.18,35.778 64.576,35.624 64.73,35.448 L65.324,37.582 C64.906,37.956 64.136,38.264 62.992,38.264 Z M76.522,38 L73.728,38 L73.728,36.658 C73.002,37.45 71.726,38.264 69.988,38.264 C67.656,38.264 66.556,36.988 66.556,34.92 L66.556,27.374 L69.35,27.374 L69.35,33.82 C69.35,35.294 70.12,35.778 71.308,35.778 C72.386,35.778 73.244,35.184 73.728,34.568 L73.728,27.374 L76.522,27.374 L76.522,38 Z M82.088,34.59 C82.572,35.272 83.584,35.778 84.508,35.778 C86.114,35.778 87.192,34.524 87.192,32.676 C87.192,30.85 86.114,29.596 84.508,29.596 C83.584,29.596 82.572,30.124 82.088,30.828 L82.088,34.59 Z M82.088,38 L79.294,38 L79.294,23.326 L82.088,23.326 L82.088,28.738 C82.924,27.638 84.112,27.11 85.366,27.11 C88.072,27.11 90.074,29.222 90.074,32.676 C90.074,36.24 88.05,38.264 85.366,38.264 C84.09,38.264 82.924,37.692 82.088,36.636 L82.088,38 Z" id="Logo-Main"></path>
            </g>
        </g>
    </g>
</svg>