<svg width="15" height="14" viewBox="0 0 15 14" fill="none" xmlns="http://www.w3.org/2000/svg">
<path d="M14.4201 9.7192H5.11537L5.58256 8.76764L13.3451 8.75358C13.6076 8.75358 13.8326 8.56608 13.8794 8.3067L14.9544 2.28951C14.9826 2.1317 14.9404 1.9692 14.8372 1.84576C14.7863 1.78501 14.7227 1.73608 14.6509 1.70235C14.5792 1.66863 14.5009 1.65092 14.4216 1.65045L4.54662 1.61764L4.46224 1.22076C4.40912 0.967639 4.18099 0.783264 3.92162 0.783264H1.50756C1.36127 0.783264 1.22098 0.841375 1.11754 0.944813C1.0141 1.04825 0.955994 1.18854 0.955994 1.33483C0.955994 1.48111 1.0141 1.6214 1.11754 1.72484C1.22098 1.82828 1.36127 1.88639 1.50756 1.88639H3.47474L3.84349 3.63951L4.75131 8.03483L3.58256 9.94264C3.52186 10.0246 3.4853 10.1218 3.47702 10.2234C3.46874 10.3251 3.48906 10.427 3.53568 10.5176C3.62943 10.7036 3.81849 10.8208 4.02787 10.8208H5.00912C4.79993 11.0986 4.68694 11.437 4.68724 11.7848C4.68724 12.6692 5.40599 13.388 6.29037 13.388C7.17474 13.388 7.89349 12.6692 7.89349 11.7848C7.89349 11.4364 7.77787 11.0973 7.57162 10.8208H10.0888C9.87962 11.0986 9.76662 11.437 9.76693 11.7848C9.76693 12.6692 10.4857 13.388 11.3701 13.388C12.2544 13.388 12.9732 12.6692 12.9732 11.7848C12.9732 11.4364 12.8576 11.0973 12.6513 10.8208H14.4216C14.7247 10.8208 14.9732 10.5739 14.9732 10.2692C14.9723 10.1231 14.9136 9.98323 14.81 9.88019C14.7064 9.77715 14.5662 9.71928 14.4201 9.7192V9.7192ZM4.77631 2.70514L13.7732 2.73483L12.8919 7.6692L5.82474 7.6817L4.77631 2.70514ZM6.29037 12.2786C6.01849 12.2786 5.79662 12.0567 5.79662 11.7848C5.79662 11.513 6.01849 11.2911 6.29037 11.2911C6.56224 11.2911 6.78412 11.513 6.78412 11.7848C6.78412 11.9158 6.7321 12.0414 6.6395 12.134C6.54691 12.2266 6.42132 12.2786 6.29037 12.2786V12.2786ZM11.3701 12.2786C11.0982 12.2786 10.8763 12.0567 10.8763 11.7848C10.8763 11.513 11.0982 11.2911 11.3701 11.2911C11.6419 11.2911 11.8638 11.513 11.8638 11.7848C11.8638 11.9158 11.8118 12.0414 11.7192 12.134C11.6266 12.2266 11.501 12.2786 11.3701 12.2786V12.2786Z" fill="white"/>
</svg>
